<svg width="16" height="16" viewBox="0 0 16 16" fill="none" xmlns="http://www.w3.org/2000/svg">
<rect width="16" height="16" fill="white"/>
<path d="M1 0V8.50074C1 12.3616 4.13909 15.5007 8 15.5007C11.8609 15.5007 15 12.3616 15 8.50074V0H1ZM14.1484 8.50074C14.1484 11.8917 11.3909 14.6491 8 14.6491C4.60905 14.6491 1.85163 11.8917 1.85163 8.50334V0.854229H14.1484V8.50334V8.50074Z" fill="#0A3D96"/>
<path d="M7.08892 8.66709C7.53768 8.66709 7.90147 8.3033 7.90147 7.85454C7.90147 7.40578 7.53768 7.04199 7.08892 7.04199C6.64016 7.04199 6.27637 7.40578 6.27637 7.85454C6.27637 8.3033 6.64016 8.66709 7.08892 8.66709Z" fill="#E95D0F"/>
<path d="M11.8927 3.85003C10.9372 2.61932 9.55334 1.87154 7.88642 1.69239C6.28442 1.51843 4.69021 1.95982 3.39718 2.93608C2.77144 3.40863 2.24955 3.98504 1.8497 4.63156C1.4161 5.33519 1.12789 6.12711 1.00586 6.96835L1.8497 7.09039C1.8497 7.09039 1.8523 7.07221 1.8549 7.06442C2.27552 4.25767 4.93687 2.22725 7.79814 2.53883C9.24955 2.69461 10.4024 3.31257 11.2228 4.37191C12.1186 5.52993 12.5392 7.19165 12.3185 8.71316C12.2562 9.14936 11.9447 10.6397 10.6179 11.577C9.24696 12.5455 7.25289 12.5559 5.76513 11.603C4.1112 10.5437 3.27515 8.48987 3.8204 6.82295C3.90868 6.55552 4.41758 5.1872 5.81447 4.6705C7.24251 4.14083 8.84191 4.603 9.70393 5.78957C9.82856 5.96094 9.93501 6.14528 10.0207 6.33742C10.2777 6.90604 10.3738 7.54476 10.3193 8.16272C10.2855 8.55738 10.1687 9.64009 9.57411 9.58037C9.16647 9.53883 9.2184 9.07666 9.26773 8.78067C9.3612 8.23542 9.43909 7.69536 9.28071 7.15011C9.04703 6.34521 8.4161 5.75841 7.59303 5.57666C6.54147 5.34558 5.33932 5.97392 4.96543 6.94758C4.54221 8.04588 4.93687 9.24284 5.92352 9.86339C6.20393 10.0399 6.49473 10.1386 6.77255 10.1905L6.82188 10.2009C6.85823 10.2061 6.89199 10.2139 6.92574 10.2165C6.96728 10.2217 7.00883 10.2269 7.05037 10.2295L7.61639 10.3048C7.63457 10.3048 7.65274 10.3074 7.67092 10.3074C7.88902 10.3074 8.07856 10.1438 8.10193 9.92051C8.1227 9.72058 8.00846 9.53883 7.8319 9.46873C7.79555 9.45574 7.7592 9.44536 7.71766 9.44017L7.28924 9.39343L6.91276 9.35189C6.7336 9.31554 6.54926 9.25063 6.37789 9.14158C5.85601 8.81442 5.44058 8.08482 5.76254 7.25396C5.98583 6.67236 6.77255 6.26991 7.41128 6.41012C7.92277 6.52177 8.31743 6.88786 8.46283 7.38898C8.57448 7.76806 8.51736 8.103 8.46283 8.45612C8.4109 8.76509 8.35898 9.08445 8.4161 9.43238C8.51217 10.014 8.91461 10.3749 9.52737 10.4268C10.4231 10.5021 10.8879 9.65048 11.0671 8.89491C11.3527 7.67459 11.1398 6.31145 10.3972 5.28846C9.31187 3.79031 7.30482 3.20871 5.52107 3.8708C3.75809 4.5251 3.12196 6.22318 3.01291 6.55812C2.35082 8.58074 3.33746 11.0577 5.30816 12.3196C6.152 12.8597 7.18019 13.1583 8.20319 13.1635H8.22136C9.2859 13.1635 10.2855 12.8545 11.1112 12.2729C12.7158 11.1408 13.0871 9.35448 13.1624 8.8352C13.4194 7.06702 12.9469 5.20278 11.8979 3.85003H11.8927Z" fill="#0A3D96"/>
</svg>
